<?xml version="1.0" encoding="UTF-8" standalone="no"?>
<svg
   xmlns:dc="http://purl.org/dc/elements/1.1/"
   xmlns:cc="http://creativecommons.org/ns#"
   xmlns:rdf="http://www.w3.org/1999/02/22-rdf-syntax-ns#"
   xmlns:svg="http://www.w3.org/2000/svg"
   xmlns="http://www.w3.org/2000/svg"
   xmlns:sodipodi="http://sodipodi.sourceforge.net/DTD/sodipodi-0.dtd"
   xmlns:inkscape="http://www.inkscape.org/namespaces/inkscape"
   width="24.00004"
   height="20.000002"
   viewBox="0 0 6.3499307 5.2916007"
   version="1.1"
   id="svg8"
   inkscape:version="1.0.1 (3bc2e813f5, 2020-09-07)"
   sodipodi:docname="BB_logo_24.svg">
  <defs
     id="defs2" />
  <sodipodi:namedview
     id="base"
     pagecolor="#ffffff"
     bordercolor="#666666"
     borderopacity="1.0"
     inkscape:pageopacity="0.0"
     inkscape:pageshadow="2"
     inkscape:zoom="22.627417"
     inkscape:cx="13.812206"
     inkscape:cy="10.47533"
     inkscape:document-units="px"
     inkscape:current-layer="layer1"
     inkscape:document-rotation="0"
     showgrid="false"
     inkscape:window-width="1920"
     inkscape:window-height="1051"
     inkscape:window-x="1431"
     inkscape:window-y="356"
     inkscape:window-maximized="1"
     inkscape:showpageshadow="false"
     units="px" />
  <metadata
     id="metadata5">
    <rdf:RDF>
      <cc:Work
         rdf:about="">
        <dc:format>image/svg+xml</dc:format>
        <dc:type
           rdf:resource="http://purl.org/dc/dcmitype/StillImage" />
        <dc:title />
      </cc:Work>
    </rdf:RDF>
  </metadata>
  <g
     inkscape:label="Layer 1"
     inkscape:groupmode="layer"
     id="layer1"
     transform="translate(-129.1167,-129.64587)">
    <path
       id="rect2774"
       style="fill:#808080;fill-opacity:1;stroke:none;stroke-width:0.0325203;stroke-opacity:1"
       d="M 4 0 L 0 4 L 0 8 L 2 10 L 0 12 L 0 16 L 4 20 L 6 20 L 10 20 L 14 20 L 18 20 L 20 20 L 24 16 L 24 12 L 22 10 L 24 8 L 24 4 L 20 0 L 18 0 L 14 0 L 10 0 L 6 0 L 4 0 z M 6 4 L 10 4 L 10 8 L 6 8 L 4 6 L 6 4 z M 14 4 L 18 4 L 20 6 L 18 8 L 14 8 L 14 4 z M 6 12 L 10 12 L 10 16 L 6 16 L 4 14 L 6 12 z M 14 12 L 18 12 L 20 14 L 18 16 L 14 16 L 14 12 z "
       transform="matrix(0.26458001,0,0,0.26458001,129.1167,129.64587)" />
  </g>
</svg>
