<?xml version="1.0" encoding="UTF-8" standalone="no"?>
<svg
   xmlns:dc="http://purl.org/dc/elements/1.1/"
   xmlns:cc="http://creativecommons.org/ns#"
   xmlns:rdf="http://www.w3.org/1999/02/22-rdf-syntax-ns#"
   xmlns:svg="http://www.w3.org/2000/svg"
   xmlns="http://www.w3.org/2000/svg"
   xmlns:sodipodi="http://sodipodi.sourceforge.net/DTD/sodipodi-0.dtd"
   xmlns:inkscape="http://www.inkscape.org/namespaces/inkscape"
   width="24"
   height="24"
   viewBox="0 0 6.34992 6.34992"
   version="1.1"
   id="svg8"
   inkscape:version="1.0.1 (3bc2e813f5, 2020-09-07)"
   sodipodi:docname="BB_logov3_24.svg">
  <defs
     id="defs2" />
  <sodipodi:namedview
     id="base"
     pagecolor="#ffffff"
     bordercolor="#666666"
     borderopacity="1.0"
     inkscape:pageopacity="0.0"
     inkscape:pageshadow="2"
     inkscape:zoom="22.627417"
     inkscape:cx="8.7289893"
     inkscape:cy="13.121848"
     inkscape:document-units="px"
     inkscape:current-layer="layer1"
     inkscape:document-rotation="0"
     showgrid="false"
     inkscape:window-width="1920"
     inkscape:window-height="1051"
     inkscape:window-x="1431"
     inkscape:window-y="356"
     inkscape:window-maximized="1"
     inkscape:showpageshadow="false"
     units="px" />
  <metadata
     id="metadata5">
    <rdf:RDF>
      <cc:Work
         rdf:about="">
        <dc:format>image/svg+xml</dc:format>
        <dc:type
           rdf:resource="http://purl.org/dc/dcmitype/StillImage" />
        <dc:title></dc:title>
      </cc:Work>
    </rdf:RDF>
  </metadata>
  <g
     inkscape:label="Layer 1"
     inkscape:groupmode="layer"
     id="layer1"
     transform="translate(-52.916672,-66.145844)">
    <path
       id="rect2774"
       style="fill:#808080;fill-opacity:1;stroke-width:0.00860414"
       d="m 54.504132,66.675004 -1.05831,1.05831 v 1.0583 l 0.26458,0.26458 -0.79373,0.79373 v 1.05831 l 1.05831,1.05831 h 0.52915 1.05831 1.05831 1.0583 v -1.05831 h -1.0583 v -1.05831 h 1.0583 v -1.05831 h 0.52916 v 3e-5 h -0.52909 v 1.05828 h -7e-5 l 0.52916,0.52916 -0.52916,0.52915 h 0.52916 v 6e-5 h -0.52909 v 1.05831 h 0.52915 v -1.2e-4 l 1.05824,-1.05825 v -1.05831 l -0.79373,-0.79373 0.26458,-0.26458 v -1.0583 l -1.05831,-1.05831 h -1.0583 -1.05831 z m 0.52915,1.05831 h 0.52916 v 1.0583 h -0.52916 l -0.52915,-0.52915 z m 1.58747,0 h 0.52915 l 0.52915,0.52915 -0.52915,0.52915 h -0.52915 z m -2.11662,2.11661 h 1.05831 v 1.05831 h -1.05831 l -0.52915,-0.52915 z" />
  </g>
</svg>
