<?xml version="1.0" standalone="no"?>
<!DOCTYPE svg PUBLIC "-//W3C//DTD SVG 20010904//EN"
 "http://www.w3.org/TR/2001/REC-SVG-20010904/DTD/svg10.dtd">
<svg version="1.0" xmlns="http://www.w3.org/2000/svg"
 width="600.000000pt" height="600.000000pt" viewBox="0 0 600.000000 600.000000"
 preserveAspectRatio="xMidYMid meet">
<metadata>
Created by potrace 1.11, written by Peter Selinger 2001-2013
</metadata>
<g transform="translate(0.000000,600.000000) scale(0.100000,-0.100000)"
fill="#000000" stroke="none">
<path d="M498 4999 l-498 -499 0 -500 0 -500 245 -245 c135 -135 245 -249 245
-255 0 -5 -110 -120 -245 -255 l-245 -246 0 -499 0 -500 500 -500 500 -500
2000 0 2000 0 500 500 500 500 0 500 0 500 -250 250 -250 250 220 220 c121
121 220 224 220 230 0 5 4 9 9 7 5 -1 18 9 30 22 21 24 21 30 21 522 l0 499
-500 500 -500 500 -2002 -1 -2003 -1 -497 -499z m4259 -756 l243 -243 -249
-250 -250 -250 -503 -2 -503 -3 2 500 3 500 492 5 c321 3 498 2 508 -5 8 -5
124 -119 257 -252z m-2257 -243 l0 -500 -497 -2 -498 -3 -253 252 -252 253
247 249 248 250 503 0 502 1 0 -500z m2378 -1877 l123 -122 -251 -251 -250
-250 -502 0 -503 0 3 500 2 500 498 2 497 3 130 -130 c71 -71 185 -185 253
-252z m-2378 -123 l0 -500 -500 0 -500 0 -250 250 -250 250 240 240 c133 132
238 245 235 250 -3 5 198 9 510 10 l515 0 0 -500z"/>
</g>
</svg>
